<?xml version="1.0" standalone="no"?>
<!DOCTYPE svg PUBLIC "-//W3C//DTD SVG 20010904//EN"
 "http://www.w3.org/TR/2001/REC-SVG-20010904/DTD/svg10.dtd">
<svg version="1.0" xmlns="http://www.w3.org/2000/svg"
 width="452.000000pt" height="452.000000pt" viewBox="0 0 452.000000 452.000000"
 preserveAspectRatio="xMidYMid meet">
<metadata>
Created by potrace 1.16, written by Peter Selinger 2001-2019
</metadata>
<g transform="translate(0.000000,452.000000) scale(0.100000,-0.100000)"
fill="#000000" stroke="none">
<path d="M2195 3671 c-88 -24 -159 -82 -196 -159 -28 -59 -31 -177 -5 -235 24
-55 82 -115 140 -145 42 -21 64 -26 126 -26 89 0 131 16 194 74 65 60 90 118
90 210 0 58 -6 86 -23 122 -27 55 -94 121 -147 143 -46 19 -138 27 -179 16z"/>
<path d="M2195 2541 c-88 -24 -159 -82 -196 -159 -28 -59 -31 -177 -5 -235 24
-55 82 -115 140 -145 42 -21 64 -26 126 -26 89 0 131 16 194 74 65 60 90 118
90 210 0 58 -6 86 -23 122 -27 55 -94 121 -147 143 -46 19 -138 27 -179 16z"/>
<path d="M2195 1411 c-88 -24 -159 -82 -196 -159 -28 -59 -31 -177 -5 -235 24
-55 82 -115 140 -145 42 -21 64 -26 126 -26 89 0 131 16 194 74 65 60 90 118
90 210 0 58 -6 86 -23 122 -27 55 -94 121 -147 143 -46 19 -138 27 -179 16z"/>
</g>
</svg>
