<?xml version="1.0" standalone="no"?>
<!DOCTYPE svg PUBLIC "-//W3C//DTD SVG 20010904//EN"
 "http://www.w3.org/TR/2001/REC-SVG-20010904/DTD/svg10.dtd">
<svg version="1.0" xmlns="http://www.w3.org/2000/svg"
 width="452.000000pt" height="452.000000pt" viewBox="0 0 452.000000 452.000000"
 preserveAspectRatio="xMidYMid meet">
<metadata>
Created by potrace 1.16, written by Peter Selinger 2001-2019
</metadata>
<g transform="translate(0.000000,452.000000) scale(0.100000,-0.100000)"
fill="#000000" stroke="none">
<path d="M2076 4269 c-687 -61 -1304 -479 -1613 -1094 -102 -201 -163 -393
-199 -620 -25 -150 -25 -440 0 -590 108 -677 510 -1224 1115 -1519 694 -338
1528 -247 2135 231 155 123 328 313 439 484 214 329 321 697 321 1099 0 336
-64 610 -211 905 -371 742 -1155 1178 -1987 1104z m416 -194 c841 -112 1491
-775 1588 -1620 58 -515 -123 -1057 -484 -1443 l-61 -65 -12 122 c-44 440
-290 810 -673 1010 -190 99 -367 142 -590 142 -223 0 -400 -43 -590 -142 -382
-200 -629 -571 -673 -1010 l-12 -122 -61 65 c-574 613 -656 1542 -198 2241
301 461 773 755 1324 826 107 14 322 12 442 -4z m-15 -2059 c325 -70 598 -279
746 -571 86 -171 117 -311 117 -525 l0 -138 -96 -62 c-594 -385 -1374 -385
-1968 0 l-96 62 0 138 c0 258 58 455 192 653 153 226 431 403 698 447 41 6 82
13 90 15 34 9 250 -5 317 -19z"/>
<path d="M2070 3657 c-121 -37 -196 -83 -291 -177 -70 -70 -94 -102 -127 -170
-53 -109 -72 -191 -72 -311 0 -401 327 -711 725 -686 382 23 662 338 643 722
-15 281 -191 517 -460 613 -62 22 -93 26 -208 29 -118 3 -144 0 -210 -20z
m298 -172 c99 -23 170 -63 243 -135 103 -101 149 -211 149 -355 0 -138 -47
-252 -144 -349 -93 -92 -221 -146 -351 -146 -260 0 -470 193 -500 460 -14 120
40 271 131 370 130 140 299 196 472 155z"/>
</g>
</svg>
